<?xml version="1.0" encoding="UTF-8"?>
<svg id="Layer_2" data-name="Layer 2" xmlns="http://www.w3.org/2000/svg" viewBox="0 0 412.32 32.48">
  <defs>
    <style>
      .cls-1 {
        fill: #fff;
      }

      .cls-2 {
        fill: #f05656;
      }
    </style>
  </defs>
  <g id="Layer_1-2" data-name="Layer 1">
    <path class="cls-2" d="m0,0h9.91v12.13h17.44V0h9.91v32.48h-9.91v-12.13H9.91v12.13H0V0Z"/>
    <path class="cls-1" d="m41.79,0h9.91v12.13h17.44V0h9.92v29.49c-.4,1.65-1.4,2.64-3,2.99h-34.27v-8.21h27.36v-3.92h-24.37c-1.65-.34-2.64-1.37-2.99-3.07V0Z"/>
    <path class="cls-1" d="m83.59,0h34.27c1.66.4,2.66,1.4,3,3v26.49c-.4,1.65-1.4,2.64-3,2.99h-34.27V0Zm9.92,8.21v3.92h17.44v-3.92h-17.44Zm0,12.13v3.92h17.44v-3.92h-17.44Z"/>
    <path class="cls-1" d="m125.38,0h34.35c1.42.29,2.4,1.17,2.92,2.65v19.31c-.86,2.39-2.99,3.3-6.41,2.74l6.41,7.78h-12.4l-6.49-7.86h-4.19v-8.21h13.25v-8.19h-17.53v24.27h-9.92V0Z"/>
    <path class="cls-1" d="m166.84,0h9.91v32.48h-9.91V0Z"/>
    <path class="cls-1" d="m180.93,0h34.27c1.66.4,2.66,1.4,3,3v26.49c-.4,1.65-1.4,2.64-3,2.99h-34.27V0Zm9.92,8.21v16.06h17.44V8.21h-17.44Z"/>
    <path class="cls-1" d="m249.35,0h34.28v8.21h-27.36v16.06h27.36v8.21h-34.28c-1.65-.4-2.64-1.4-2.99-2.99V3c.4-1.66,1.4-2.66,2.99-3Z"/>
    <path class="cls-1" d="m291.14,0h34.28v8.21h-27.36v16.06h27.36v8.21h-34.28c-1.65-.4-2.64-1.4-2.99-2.99V3c.4-1.66,1.4-2.66,2.99-3Z"/>
    <path class="cls-1" d="m329.95,0h37.27v8.21h-13.69v24.27h-9.92V8.21h-13.67V0Z"/>
    <path class="cls-1" d="m371.64,0h9.91v22.4L399.93,0h12.38l-26.57,32.48h-14.1V0Zm29.99,21.8h10.68v10.68h-10.68v-10.68Z"/>
  </g>
</svg>