<?xml version="1.0" standalone="no"?>
<!DOCTYPE svg PUBLIC "-//W3C//DTD SVG 20010904//EN"
 "http://www.w3.org/TR/2001/REC-SVG-20010904/DTD/svg10.dtd">
<svg version="1.0" xmlns="http://www.w3.org/2000/svg"
 width="150.000000pt" height="150.000000pt" viewBox="0 0 150.000000 150.000000"
 preserveAspectRatio="xMidYMid meet">
<metadata>
Created by potrace 1.14, written by Peter Selinger 2001-2017
</metadata>
<g transform="translate(0.000000,150.000000) scale(0.100000,-0.100000)"
fill="#000000" stroke="none">
<path d="M3 758 c0 -354 3 -647 7 -653 5 -6 83 -10 201 -9 l192 1 0 241 c0
169 3 242 11 243 14 1 623 1 657 0 l26 -1 0 -234 c0 -128 2 -237 6 -242 4 -7
275 -10 378 -5 14 1 16 66 16 651 l0 650 -198 0 -199 0 -1 -27 c-1 -16 -1
-123 -1 -240 0 -187 -2 -212 -17 -215 -9 -2 -164 -4 -346 -3 l-330 0 -2 235
c-1 129 -2 238 -2 243 -1 4 -90 7 -200 7 l-198 0 0 -642z"/>
</g>
</svg>
